<svg id="Layer_1" data-name="Layer 1" xmlns="http://www.w3.org/2000/svg" viewBox="0 0 789.3 174.71"><defs><style>.cls-1{fill:#0069aa;}.cls-2,.cls-3{fill:#818182;}.cls-3{fill-rule:evenodd;}</style></defs><title>Titan2</title><path class="cls-1" d="M477,7.83H193.33c-5.12,0-9.94,2.19-10.7,4.81l-1.47,5c-.77,2.62,2.81,4.71,7.94,4.71h112l-29.74,88c-1.06,3.12,4.5,5.66,12.36,5.69h49.9c7.88,0,15.17-2.57,16.22-5.69l29.75-88h92.67ZM591,13.51q-12.36-5.7-36.17-5.69h-59L491.1,22.38h1l12.33.15c6.87.08,11.58,2.09,14.69,4.27,2.16,1.52,2.57,3.2,2.08,5.13-1.26,4.91-3.84,10.11-5.7,15.22-.68,1.86-2.12,3.61-5.22,5.13A43.45,43.45,0,0,1,493,56.56H452.68c-15.87,0-29.09,2.08-39.65,5.88s-16.24,8.67-18.65,15.15c-.66,1.77-7.34,21.13-10.32,29.73-.86,2.5-.42,8.84,7.25,8.84l172,0c5.12,0,9.94-2.14,10.71-4.76l1.47-5c.76-2.61-2.83-4.75-8-4.75l-103.31,0c1.86-5.08,5.41-14.74,6.87-19.09.35-1,4.12-11.67,27.68-11.67h35.83q23.8,0,39.65-5.69c10.56-3.8,17.14-8.86,18.65-15.15,1.44-6,5.15-14.72,7.42-20.87S599.26,17.31,591,13.51Z" transform="translate(-8.2 -7.82)"/><path class="cls-2" d="M65.65,157.52H55.45a15.56,15.56,0,0,0-7.78,2.17l-7.06,3.78-3.9-3.78c-.46-.46-1.87-2.18-5.95-2.18H20.56c-1.87,0-3.45,1.36-3,1.83,0,0,5.39,5.09,11,10.56l-1.88,1L8.34,181c-.55.71.54,1.3,2.4,1.3H22.45a8.32,8.32,0,0,0,4.39-1.3c2.1-1.2,5-2.83,8.37-4.64,1.8,1.82,3.38,3.44,4.47,4.64A3.86,3.86,0,0,0,43,182.33H54.69c1.86,0,3.43-.58,3.49-1.3l-9.93-10.12c-.34-.32-.68-.67-1-1,10.22-5.46,19.86-10.54,19.86-10.54C68,158.89,67.52,157.53,65.65,157.52Z" transform="translate(-8.2 -7.82)"/><path class="cls-2" d="M179.26,158.21c-.11-.6-1.32-1.06-2.93-1.06H133.06c-1.82,0-3.51.59-3.77,1.31l-6,18.13a0,0,0,0,0,0,0c-.5,1.63-1.12,2-2.19,2h-1.54c-.69,0-2.09.18-2.54,1.08-.24.73-.46,1.44-.46,1.44s-.08,1.11,1.77,1.19h17.95c1.84,0,3.55-.59,3.79-1.32l6.79-20.13H160.3L153.51,181l0,.26c.05.26.3.48.68.65l0,0,.1,0a5.5,5.5,0,0,0,2.14.36H168c1.83,0,3.51-.58,3.78-1.3l7.5-22.55Zm-63.32-1H83.77l-.06,0c-11.76.13-14.23,6.36-14.23,6.36L63.6,181c-.24.73,1.06,1.32,2.9,1.32H100C110.7,181.83,113,176,113,176l5.82-17.54C119.09,157.78,117.78,157.18,115.94,157.18Zm-15.8,9.92-2.25,6.76c-.54,1.25-2.72,5.17-8.84,5.17l-8.93,0,2.34-7.1,1.3-3.9.78-2.36c.52-1.22,2.69-5.19,8.85-5.19h8.93Zm206.36-9.92H296.45a10.53,10.53,0,0,0-6.77,2.21l-22.27,15.84L273,158.51c.24-.73-1.06-1.33-2.91-1.33H258.53c-1.84,0-3.55.6-3.79,1.32L247.23,181c-.24.73,1.08,1.32,2.92,1.32h10.06a10.61,10.61,0,0,0,6.78-2.2l22.27-15.84L283.69,181c-.24.73,1.07,1.32,2.91,1.32h11.54c1.85,0,3.55-.59,3.79-1.32l7.48-22.53C309.65,157.78,308.34,157.18,306.5,157.18Zm110.69,0H383.9a3.37,3.37,0,0,0-3.18,1.84l-7.21,22c-.24.73,1.07,1.32,2.91,1.32H388c1.85,0,3.55-.59,3.79-1.32l6.8-20.43h17.68c1.19,0,2.2-.51,2.38-1.12l.38-1.19C419.16,157.68,418.39,157.18,417.19,157.18ZM238.37,157H205c-12.63,0-14.37,7-14.37,7l-5.23,14.61H181a2.71,2.71,0,0,0-2.45,1.85l-.13.49c-.33,1.27,2.87,1.36,2.87,1.36H235a7.43,7.43,0,0,0,2.55-.45,1.91,1.91,0,0,0,1.32-1.4c.18-1.24-.45-1.79-1.33-1.85h-4.41L240,159.08S240.8,157,238.37,157Zm-21.06,21.49H201.23l4.56-12.62s1.71-5.55,9-5.55l9,0ZM370.2,157.18H358.66c-1.85,0-3.55.6-3.79,1.32l-3.18,9.56H333.47l3.18-9.56,0-.26a1.07,1.07,0,0,0-.68-.65l0,0-.07,0a5.61,5.61,0,0,0-2.17-.37H322.2c-1.82,0-3.52.59-3.78,1.31L310.92,181l0,.23c.08.62,1.29,1.09,2.93,1.09h11.53c1.85,0,3.55-.59,3.79-1.32l3.18-9.55h18.22L347.37,181l0,.27a1.09,1.09,0,0,0,.67.65h0l.1,0a6,6,0,0,0,2.14.35h11.54c1.83,0,3.52-.58,3.78-1.31l7.51-22.54,0-.26C373,157.64,371.81,157.18,370.2,157.18Z" transform="translate(-8.2 -7.82)"/><path class="cls-3" d="M795.19,158.54c-1.94-.9-4.77-1.34-8.49-1.34H756.2c-1.2,0-1.9.51-2.07,1.14l-.41,1.19c-.18.61.3,1.1,1.5,1.1h19.4l.33,0a6.06,6.06,0,0,1,3.44,1,1,1,0,0,1,.48,1.21c-.29,1.16-.88,2.39-1.31,3.6a2.16,2.16,0,0,1-1.22,1.21,10.11,10.11,0,0,1-4,1l-1,0h-8.49a27.62,27.62,0,0,0-9.28,1.35c-2.46.89-4.11,2.09-4.45,3.57l-2.53,7.74c-.17.61.67,1.12,1.87,1.12h40.89c1.18,0,1.89-.52,2.07-1.14l.4-1.19c.17-.62-.31-1.11-1.51-1.11H765.67l1.49-4.75c.09-.44.67-.85,1.4-1.21a10,10,0,0,1,4-1l1-.05H782a27.39,27.39,0,0,0,9.28-1.34c2.47-.9,4-2.09,4.35-3.57l1.66-4.94c.54-1.48-.21-2.78-2.14-3.68m-291.3,1,.38-1.19c.17-.62-.6-1.12-1.81-1.12H448.05c-1.2,0-2.22.51-2.39,1.13l-.39,1.19c-.17.61.61,1.11,1.81,1.11h18.24l-6.86,20.56c-.23.73,1.08,1.34,2.94,1.34H473c1.84,0,3.57-.61,3.81-1.34l6.85-20.56H501.5C502.69,160.63,503.71,160.12,503.89,159.51Zm118.81,0,.38-1.19c.17-.62-.6-1.12-1.8-1.12H566.86c-1.2,0-2.22.51-2.39,1.13l-.38,1.19c-.17.61.6,1.11,1.81,1.11h18.23l-6.85,20.56c-.24.73,1.08,1.34,2.94,1.34h11.62c1.85,0,3.57-.61,3.81-1.34l6.85-20.56h17.81C621.51,160.63,622.52,160.12,622.7,159.51Zm-64-2.31H548.58a10.65,10.65,0,0,0-6.83,2.22l-22.43,15.94,5.6-16.83c.25-.73-1.07-1.33-2.93-1.33H510.38c-1.86,0-3.58.6-3.82,1.33L499,181.19c-.24.73,1.08,1.34,2.93,1.34h10.14a10.61,10.61,0,0,0,6.83-2.23l22.43-15.93-5.61,16.82c-.24.73,1.08,1.34,2.93,1.34h11.63c1.86,0,3.58-.61,3.82-1.34l7.54-22.66C561.88,157.8,560.56,157.2,558.7,157.2Zm181.83,0H728.91c-1.86,0-3.57.6-3.82,1.33l-3.2,9.61H703.54l3.2-9.61,0-.27a1,1,0,0,0-.67-.65l0,0-.08,0a5.89,5.89,0,0,0-2.18-.36H692.19c-1.85,0-3.55.59-3.81,1.31l-7.55,22.68,0,.24c.08.62,1.31,1.1,3,1.1h11.63c1.85,0,3.57-.61,3.81-1.34l3.21-9.61h18.34l-3.2,9.61,0,.27c.05.25.29.48.67.66h0l.1,0a5.85,5.85,0,0,0,2.16.36h11.62c1.85,0,3.55-.59,3.81-1.32l7.56-22.68,0-.27C743.37,157.66,742.16,157.2,740.53,157.2Zm-82.7,10.94h-18.4l.67-2s1.72-5.58,9-5.58l11.22,0Zm-21-10.94c-12.72,0-14.47,7-14.47,7l-5.65,17c-.25.73,1.07,1.34,2.93,1.34h11.63c1.85,0,3.57-.61,3.81-1.34l3.17-9.61h18.38l-3.2,9.61c-.25.73,1.07,1.34,2.93,1.34H668c1.86,0,3.58-.61,3.82-1.34l8-24Z" transform="translate(-8.2 -7.82)"/></svg>