<?xml version="1.0" encoding="utf-8"?>
<!-- Generator: Adobe Illustrator 26.3.1, SVG Export Plug-In . SVG Version: 6.00 Build 0)  -->
<svg version="1.1" id="Layer_1" xmlns="http://www.w3.org/2000/svg" xmlns:xlink="http://www.w3.org/1999/xlink" x="0px" y="0px"
	 viewBox="0 0 500 500" style="enable-background:new 0 0 500 500;" xml:space="preserve">
<style type="text/css">
	.st0{fill:#FFFFFF;}
</style>
<path class="st0" d="M394,275H106c-8.84,0-16-7.16-16-16v-18c0-8.84,7.16-16,16-16h288c8.84,0,16,7.16,16,16v18
	C410,267.84,402.84,275,394,275z"/>
<path class="st0" d="M394,395H106c-8.84,0-16-7.16-16-16v-18c0-8.84,7.16-16,16-16h288c8.84,0,16,7.16,16,16v18
	C410,387.84,402.84,395,394,395z"/>
<path class="st0" d="M394,155H106c-8.84,0-16-7.16-16-16v-18c0-8.84,7.16-16,16-16h288c8.84,0,16,7.16,16,16v18
	C410,147.84,402.84,155,394,155z"/>
</svg>
